name C:\Users\u0101727\Documents\MyRepositories\upper-imu-dc\OpenSim\subject0\MA\ResultsMA\grid_4nodes_9dim\angles_16.mot
datacolumns 10
datarows 52
range 1650.01000000 1650.52000000
endheader 
time	clav_prot	clav_elev	scapula_abduction	scapula_elevation	scapula_upward_rot	scapula_winging	plane_elv	shoulder_elv	axial_rot	
       1650.01000000	        -50.00000000	         10.00000000	        -40.00000000	          3.33333333	          0.00000000	        -10.00000000	        -90.00000000	         63.33333333	         30.00000000	
       1650.02000000	        -38.33333333	         10.00000000	        -40.00000000	          3.33333333	          0.00000000	        -10.00000000	        -90.00000000	         63.33333333	         30.00000000	
       1650.03000000	        -26.66666667	         10.00000000	        -40.00000000	          3.33333333	          0.00000000	        -10.00000000	        -90.00000000	         63.33333333	         30.00000000	
       1650.04000000	        -15.00000000	         10.00000000	        -40.00000000	          3.33333333	          0.00000000	        -10.00000000	        -90.00000000	         63.33333333	         30.00000000	
       1650.05000000	        -50.00000000	         20.00000000	        -40.00000000	          3.33333333	          0.00000000	        -10.00000000	        -90.00000000	         63.33333333	         30.00000000	
       1650.06000000	        -38.33333333	         20.00000000	        -40.00000000	          3.33333333	          0.00000000	        -10.00000000	        -90.00000000	         63.33333333	         30.00000000	
       1650.07000000	        -26.66666667	         20.00000000	        -40.00000000	          3.33333333	          0.00000000	        -10.00000000	        -90.00000000	         63.33333333	         30.00000000	
       1650.08000000	        -15.00000000	         20.00000000	        -40.00000000	          3.33333333	          0.00000000	        -10.00000000	        -90.00000000	         63.33333333	         30.00000000	
       1650.09000000	        -50.00000000	        -10.00000000	        -21.66666667	          3.33333333	          0.00000000	        -10.00000000	        -90.00000000	         63.33333333	         30.00000000	
       1650.10000000	        -38.33333333	        -10.00000000	        -21.66666667	          3.33333333	          0.00000000	        -10.00000000	        -90.00000000	         63.33333333	         30.00000000	
       1650.11000000	        -26.66666667	        -10.00000000	        -21.66666667	          3.33333333	          0.00000000	        -10.00000000	        -90.00000000	         63.33333333	         30.00000000	
       1650.12000000	        -15.00000000	        -10.00000000	        -21.66666667	          3.33333333	          0.00000000	        -10.00000000	        -90.00000000	         63.33333333	         30.00000000	
       1650.13000000	        -50.00000000	          0.00000000	        -21.66666667	          3.33333333	          0.00000000	        -10.00000000	        -90.00000000	         63.33333333	         30.00000000	
       1650.14000000	        -38.33333333	          0.00000000	        -21.66666667	          3.33333333	          0.00000000	        -10.00000000	        -90.00000000	         63.33333333	         30.00000000	
       1650.15000000	        -26.66666667	          0.00000000	        -21.66666667	          3.33333333	          0.00000000	        -10.00000000	        -90.00000000	         63.33333333	         30.00000000	
       1650.16000000	        -15.00000000	          0.00000000	        -21.66666667	          3.33333333	          0.00000000	        -10.00000000	        -90.00000000	         63.33333333	         30.00000000	
       1650.17000000	        -50.00000000	         10.00000000	        -21.66666667	          3.33333333	          0.00000000	        -10.00000000	        -90.00000000	         63.33333333	         30.00000000	
       1650.18000000	        -38.33333333	         10.00000000	        -21.66666667	          3.33333333	          0.00000000	        -10.00000000	        -90.00000000	         63.33333333	         30.00000000	
       1650.19000000	        -26.66666667	         10.00000000	        -21.66666667	          3.33333333	          0.00000000	        -10.00000000	        -90.00000000	         63.33333333	         30.00000000	
       1650.20000000	        -15.00000000	         10.00000000	        -21.66666667	          3.33333333	          0.00000000	        -10.00000000	        -90.00000000	         63.33333333	         30.00000000	
       1650.21000000	        -50.00000000	         20.00000000	        -21.66666667	          3.33333333	          0.00000000	        -10.00000000	        -90.00000000	         63.33333333	         30.00000000	
       1650.22000000	        -38.33333333	         20.00000000	        -21.66666667	          3.33333333	          0.00000000	        -10.00000000	        -90.00000000	         63.33333333	         30.00000000	
       1650.23000000	        -26.66666667	         20.00000000	        -21.66666667	          3.33333333	          0.00000000	        -10.00000000	        -90.00000000	         63.33333333	         30.00000000	
       1650.24000000	        -15.00000000	         20.00000000	        -21.66666667	          3.33333333	          0.00000000	        -10.00000000	        -90.00000000	         63.33333333	         30.00000000	
       1650.25000000	        -50.00000000	        -10.00000000	         -3.33333333	          3.33333333	          0.00000000	        -10.00000000	        -90.00000000	         63.33333333	         30.00000000	
       1650.26000000	        -38.33333333	        -10.00000000	         -3.33333333	          3.33333333	          0.00000000	        -10.00000000	        -90.00000000	         63.33333333	         30.00000000	
       1650.27000000	        -26.66666667	        -10.00000000	         -3.33333333	          3.33333333	          0.00000000	        -10.00000000	        -90.00000000	         63.33333333	         30.00000000	
       1650.28000000	        -15.00000000	        -10.00000000	         -3.33333333	          3.33333333	          0.00000000	        -10.00000000	        -90.00000000	         63.33333333	         30.00000000	
       1650.29000000	        -50.00000000	          0.00000000	         -3.33333333	          3.33333333	          0.00000000	        -10.00000000	        -90.00000000	         63.33333333	         30.00000000	
       1650.30000000	        -38.33333333	          0.00000000	         -3.33333333	          3.33333333	          0.00000000	        -10.00000000	        -90.00000000	         63.33333333	         30.00000000	
       1650.31000000	        -26.66666667	          0.00000000	         -3.33333333	          3.33333333	          0.00000000	        -10.00000000	        -90.00000000	         63.33333333	         30.00000000	
       1650.32000000	        -15.00000000	          0.00000000	         -3.33333333	          3.33333333	          0.00000000	        -10.00000000	        -90.00000000	         63.33333333	         30.00000000	
       1650.33000000	        -50.00000000	         10.00000000	         -3.33333333	          3.33333333	          0.00000000	        -10.00000000	        -90.00000000	         63.33333333	         30.00000000	
       1650.34000000	        -38.33333333	         10.00000000	         -3.33333333	          3.33333333	          0.00000000	        -10.00000000	        -90.00000000	         63.33333333	         30.00000000	
       1650.35000000	        -26.66666667	         10.00000000	         -3.33333333	          3.33333333	          0.00000000	        -10.00000000	        -90.00000000	         63.33333333	         30.00000000	
       1650.36000000	        -15.00000000	         10.00000000	         -3.33333333	          3.33333333	          0.00000000	        -10.00000000	        -90.00000000	         63.33333333	         30.00000000	
       1650.37000000	        -50.00000000	         20.00000000	         -3.33333333	          3.33333333	          0.00000000	        -10.00000000	        -90.00000000	         63.33333333	         30.00000000	
       1650.38000000	        -38.33333333	         20.00000000	         -3.33333333	          3.33333333	          0.00000000	        -10.00000000	        -90.00000000	         63.33333333	         30.00000000	
       1650.39000000	        -26.66666667	         20.00000000	         -3.33333333	          3.33333333	          0.00000000	        -10.00000000	        -90.00000000	         63.33333333	         30.00000000	
       1650.40000000	        -15.00000000	         20.00000000	         -3.33333333	          3.33333333	          0.00000000	        -10.00000000	        -90.00000000	         63.33333333	         30.00000000	
       1650.41000000	        -50.00000000	        -10.00000000	         15.00000000	          3.33333333	          0.00000000	        -10.00000000	        -90.00000000	         63.33333333	         30.00000000	
       1650.42000000	        -38.33333333	        -10.00000000	         15.00000000	          3.33333333	          0.00000000	        -10.00000000	        -90.00000000	         63.33333333	         30.00000000	
       1650.43000000	        -26.66666667	        -10.00000000	         15.00000000	          3.33333333	          0.00000000	        -10.00000000	        -90.00000000	         63.33333333	         30.00000000	
       1650.44000000	        -15.00000000	        -10.00000000	         15.00000000	          3.33333333	          0.00000000	        -10.00000000	        -90.00000000	         63.33333333	         30.00000000	
       1650.45000000	        -50.00000000	          0.00000000	         15.00000000	          3.33333333	          0.00000000	        -10.00000000	        -90.00000000	         63.33333333	         30.00000000	
       1650.46000000	        -38.33333333	          0.00000000	         15.00000000	          3.33333333	          0.00000000	        -10.00000000	        -90.00000000	         63.33333333	         30.00000000	
       1650.47000000	        -26.66666667	          0.00000000	         15.00000000	          3.33333333	          0.00000000	        -10.00000000	        -90.00000000	         63.33333333	         30.00000000	
       1650.48000000	        -15.00000000	          0.00000000	         15.00000000	          3.33333333	          0.00000000	        -10.00000000	        -90.00000000	         63.33333333	         30.00000000	
       1650.49000000	        -50.00000000	         10.00000000	         15.00000000	          3.33333333	          0.00000000	        -10.00000000	        -90.00000000	         63.33333333	         30.00000000	
       1650.50000000	        -38.33333333	         10.00000000	         15.00000000	          3.33333333	          0.00000000	        -10.00000000	        -90.00000000	         63.33333333	         30.00000000	
       1650.51000000	        -26.66666667	         10.00000000	         15.00000000	          3.33333333	          0.00000000	        -10.00000000	        -90.00000000	         63.33333333	         30.00000000	
       1650.52000000	        -15.00000000	         10.00000000	         15.00000000	          3.33333333	          0.00000000	        -10.00000000	        -90.00000000	         63.33333333	         30.00000000	
